HIERARCHY
ROOT Hips
{
	OFFSET 0.000000 0.000000 0.000000
	CHANNELS 6 Xposition Yposition Zposition Zrotation Yrotation Xrotation 
	JOINT LHipJoint
	{
		OFFSET 0.000000 0.000000 0.000000
		CHANNELS 3 Zrotation Yrotation Xrotation
		JOINT LeftUpLeg
		{
			OFFSET 1.363060 -1.794630 0.839290
			CHANNELS 3 Zrotation Yrotation Xrotation
			JOINT LeftLeg
			{
				OFFSET 2.448110 -6.726130 0.000000
				CHANNELS 3 Zrotation Yrotation Xrotation
				JOINT LeftFoot
				{
					OFFSET 2.562200 -7.039590 0.000000
					CHANNELS 3 Zrotation Yrotation Xrotation
					JOINT LeftToeBase
					{
						OFFSET 0.157640 -0.433110 2.322550
						CHANNELS 3 Zrotation Yrotation Xrotation
						End Site
						{
							OFFSET 0.000000 0.000000 0.000000
						}
					}
				}
			}
		}
	}
	JOINT RHipJoint
	{
		OFFSET 0.000000 0.000000 0.000000
		CHANNELS 3 Zrotation Yrotation Xrotation
		JOINT RightUpLeg
		{
			OFFSET -1.305520 -1.794630 0.839290
			CHANNELS 3 Zrotation Yrotation Xrotation
			JOINT RightLeg
			{
				OFFSET -2.542530 -6.985550 0.000000
				CHANNELS 3 Zrotation Yrotation Xrotation
				JOINT RightFoot
				{
					OFFSET -2.568260 -7.056230 0.000000
					CHANNELS 3 Zrotation Yrotation Xrotation
					JOINT RightToeBase
					{
						OFFSET -0.164730 -0.452590 2.363150
						CHANNELS 3 Zrotation Yrotation Xrotation
						End Site
						{
							OFFSET 0.000000 0.000000 0.000000
						}
					}
				}
			}
		}
	}
}
MOTION
Frames: 31
Frame Time: 0.008333
12.480549 16.926071 2.456251 -173.963180 -84.322978 -173.919449 -12.012335 6.289174 0.949741 -5.060461 11.626242 3.998634 -0.685650 1.887507 25.154109 1.089094 -12.158299 33.808720 -8.166300 0.000000 -70.650200 7.269721 -0.984646 6.714804 13.830129 15.651667 -31.338988 3.740002 0.600229 9.027006 0.756860 3.734476 1.444142 0.037700 0.000000 -26.966300
12.279953 16.925181 2.455406 -166.408733 -83.996304 178.341405 -11.966827 6.243190 0.826967 -4.059376 12.547690 2.850531 -0.582467 1.945319 27.772920 1.253637 -11.558452 34.942758 -8.048500 0.000000 -65.558300 7.404503 -1.040581 6.693319 14.834286 15.622977 -31.022830 3.783335 0.380868 10.375531 0.857359 4.337639 1.702929 0.169200 -0.000000 -23.358300
12.084666 16.926455 2.452853 -160.202240 -83.710645 171.930642 -11.931427 6.133012 0.677385 -3.133822 13.458433 1.668148 -0.459743 1.992799 30.449534 1.414247 -10.218492 35.711800 -7.376700 0.000000 -60.357600 7.493351 -1.129798 6.657645 15.792666 15.515304 -30.653205 3.826667 0.180046 11.658063 0.939577 4.940172 1.649890 0.293100 -0.000000 -19.576900
11.894819 16.930066 2.448150 -155.347726 -83.436133 166.854184 -11.918087 5.984333 0.508810 -2.316553 14.328271 0.465268 -0.328833 2.040545 33.131035 1.575696 -8.128974 36.045006 -6.139700 -0.000000 -55.460600 7.536101 -1.227657 6.602329 16.679747 15.355768 -30.205006 3.871710 0.006578 12.856637 1.003563 5.512282 1.310083 0.393500 0.000000 -15.634200
11.710308 16.936213 2.440918 -151.703372 -83.168070 162.973731 -11.916547 5.816033 0.329645 -1.627444 15.119212 -0.745249 -0.199028 2.097505 35.772196 1.740243 -5.370334 35.878967 -4.410100 0.000000 -51.150700 7.550862 -1.316054 6.526396 17.477370 15.157514 -29.664173 3.916118 -0.135621 13.943953 1.049119 6.026234 0.744945 0.461100 0.000000 -11.714100
11.530639 16.945103 2.430768 -149.046291 -82.920669 160.074958 -11.912859 5.640358 0.149104 -1.075254 15.793920 -1.957888 -0.075241 2.169058 38.337013 1.907521 -2.106243 35.163663 -2.339799 -0.000000 -47.510900 7.556586 -1.387223 6.432614 18.173164 14.925107 -29.027996 3.955990 -0.245875 14.887051 1.076313 6.456809 0.043930 0.494400 -0.000000 -8.199400
11.355388 16.956870 2.417710 -147.087172 -82.714738 157.872842 -11.897058 5.463539 -0.023929 -0.653702 16.322004 -3.172172 0.041509 2.256613 40.795518 2.074832 1.437762 33.874433 -0.138400 -0.000001 -44.457400 7.565272 -1.440805 6.324576 18.767907 14.656477 -28.301090 3.990117 -0.324548 15.655900 1.085684 6.789091 -0.722575 0.496900 -0.000000 -5.202000
11.183728 16.971549 2.402008 -145.537897 -82.569043 156.089118 -11.864827 5.289248 -0.179800 -0.349032 16.679162 -4.390315 0.151759 2.357720 43.118951 2.237982 5.013119 32.026626 1.966600 0.000000 -41.819401 7.582361 -1.481395 6.205847 19.272220 14.344536 -27.493431 4.019427 -0.372701 16.227237 1.078761 7.017638 -1.499009 0.475900 0.000000 -2.692701
11.015114 16.989122 2.383980 -144.168677 -82.498403 154.499733 -11.815437 5.119564 -0.309094 -0.147689 16.846745 -5.616794 0.255722 2.467312 45.280276 2.391751 8.388617 29.678214 3.773600 0.000000 -39.393500 7.610257 -1.514815 6.079359 19.698565 13.980518 -26.621030 4.044602 -0.392923 16.585716 1.058418 7.143020 -2.224724 0.440300 0.000000 -0.743800
10.848819 17.009437 2.364117 -142.783634 -82.510527 152.919030 -11.750405 4.955124 -0.402548 -0.036843 16.809998 -6.855136 0.352809 2.577705 47.252755 2.530958 11.383610 26.931629 5.142900 -0.000001 -37.073500 7.649279 -1.547372 5.947991 20.060342 13.557592 -25.703723 4.066395 -0.388496 16.724995 1.028271 7.171266 -2.846581 -179.600901 -0.000000 -0.566901
10.684298 17.032241 2.343017 -141.176814 -82.605760 151.147154 -11.672801 4.793360 -0.454490 0.005078 16.567152 -8.104960 0.442131 2.680059 49.017069 2.649663 13.874904 23.908168 6.007600 -0.000000 -34.770200 7.696814 -1.585350 5.814111 20.377626 13.073395 -24.757968 4.087209 -0.362735 16.647321 0.991550 7.113694 -3.339622 -179.641600 0.000000 -1.343201
10.521069 17.057190 2.321374 -139.180797 -82.777057 149.022453 -11.586469 4.630762 -0.462145 -0.003241 16.125656 -9.363270 0.522014 2.765960 50.558731 2.741632 15.800411 20.732061 6.372900 0.000000 -32.425600 7.749304 -1.633808 5.680309 20.666444 12.531921 -23.799545 4.108988 -0.319122 16.363214 0.951341 6.984727 -3.690703 -179.677900 -0.000000 -1.690300
10.359027 17.083862 2.299795 -136.686642 -83.009444 146.432958 -11.496396 4.463586 -0.427636 -0.043051 15.507644 -10.618447 0.590183 2.829181 51.868335 2.800497 17.144386 17.512043 6.297101 0.000000 -29.905000 7.802490 -1.696226 5.546680 20.939421 11.937365 -22.837491 4.133164 -0.261812 15.894913 0.911048 6.806209 -3.898888 -179.707699 -0.000000 -1.699400
10.197830 17.111750 2.278795 -133.535667 -83.283430 143.232477 -11.409300 4.283805 -0.352790 -0.094434 14.731971 -11.873813 0.645964 2.862826 52.941150 2.824475 17.944495 14.390699 5.892900 -0.000000 -27.656400 7.847189 -1.775469 5.422132 21.207919 11.328964 -21.886391 4.161526 -0.192540 15.253763 0.870164 6.576270 -3.973986 -179.732600 0.000000 -1.502899
10.037689 17.140364 2.258880 -129.834378 -83.570854 139.512848 -11.332665 4.092703 -0.247859 -0.146686 13.849677 -13.105151 0.685498 2.868577 53.775289 2.809052 18.241863 11.407416 5.257700 0.000001 -25.326400 7.878461 -1.870001 5.301602 21.473521 10.708491 -20.940152 4.193907 -0.115341 14.483362 0.832646 6.330727 -3.939076 -179.752199 -0.000000 -1.187400
9.878594 17.169223 2.240246 -125.733011 -83.842935 135.425006 -11.273095 3.890659 -0.120140 -0.190937 12.902294 -14.307734 0.706199 2.848806 54.371676 2.756357 18.114245 8.631153 4.504700 0.000000 -23.104799 7.889446 -1.975571 5.188800 21.736010 10.109580 -19.999970 4.229973 -0.031361 13.613512 0.798888 6.079992 -3.818627 -179.768200 0.000000 -0.847900
9.720862 17.197877 2.222970 -121.599189 -84.071850 131.328077 -11.232262 3.684186 0.020831 -0.226441 11.939426 -15.471847 0.704410 2.810653 54.732636 2.671153 17.649705 6.090464 3.723500 0.000001 -21.012900 7.879900 -2.083019 5.082010 21.989337 9.551364 -19.061848 4.268221 0.057841 12.686730 0.770763 5.846758 -3.643318 -179.781300 0.000000 -0.573500
9.564543 17.225990 2.206988 -117.845180 -84.237899 127.632381 -11.206233 3.480557 0.168161 -0.252373 11.004153 -16.597960 0.678213 2.761121 54.865737 2.561927 16.946686 3.797433 2.980800 0.000000 -19.091000 7.853942 -2.183119 4.983959 22.228550 9.058609 -18.124609 4.306922 0.151429 11.735767 0.749092 5.642036 -3.433155 -179.791900 -0.000000 -0.376200
9.409824 17.253331 2.192029 -114.927004 -84.333070 124.786938 -11.184686 3.288225 0.314687 -0.275139 10.133276 -17.682125 0.626808 2.706812 54.778348 2.439688 16.107846 1.744028 2.317000 0.000000 -17.344501 7.823100 -2.266205 4.892703 22.444675 8.636424 -17.188657 4.343920 0.247269 10.799058 0.735941 5.486485 -3.210185 -179.798900 -0.000000 -0.274700
9.256643 17.279760 2.177778 -113.133021 -84.359601 123.078387 -11.157340 3.111573 0.456047 -0.300380 9.350539 -18.726934 0.552145 2.650867 54.482593 2.316600 15.231332 -0.087845 1.750000 0.000000 -15.790400 7.797897 -2.327414 4.808927 22.631260 8.287473 -16.259307 4.377627 0.343071 9.902595 0.732477 5.390652 -2.983559 -179.801200 0.000000 -0.223100
9.104977 17.305238 2.163972 -112.579063 -84.325590 122.620073 -11.117458 2.951762 0.590176 -0.333564 8.667452 -19.735430 0.457731 2.594050 53.992073 2.204048 14.401794 -1.723928 1.280100 -0.000000 -14.439300 7.784932 -2.365782 4.733133 22.783240 8.007597 -15.342010 4.407115 0.436836 9.061571 0.739283 5.359702 -2.755867 -179.797700 -0.000000 -0.175900
8.954697 17.329842 2.150329 -113.240853 -84.240794 123.385630 -11.062845 2.808645 0.717436 -0.381921 8.083861 -20.708171 0.347475 2.535928 53.319981 2.111281 13.684279 -3.193542 0.896300 0.000000 -13.280199 7.786731 -2.383223 4.663963 22.894978 7.781893 -14.443586 4.431909 0.526709 8.285161 0.757133 5.398785 -2.523057 -179.787000 -0.000000 -0.074000
8.805571 17.353612 2.136670 -114.989951 -84.113897 125.245789 -10.995509 2.680985 0.840409 -0.451439 7.588545 -21.645156 0.225319 2.475468 52.478641 2.044389 13.118856 -4.522591 0.582000 0.000000 -12.298700 7.801649 -2.383578 4.598628 22.963057 7.588870 -13.571124 4.452103 0.611363 7.575375 0.786699 5.511186 -2.274991 0.232400 -0.000000 -0.151500
8.657346 17.376666 2.122906 -117.606041 -83.951344 127.980109 -10.921668 2.566091 0.963561 -0.542116 7.162805 -22.544325 0.095531 2.411014 51.482000 2.005534 12.717007 -5.730708 0.320300 0.000000 -11.469900 7.823251 -2.372682 4.535343 22.988297 7.409000 -12.727317 4.468601 0.690726 6.923167 0.827569 5.693212 -2.000825 0.261300 -0.000000 -0.521800
8.509914 17.399096 2.109108 -120.843133 -83.758947 131.340372 -10.848253 2.460609 1.091793 -0.652004 6.781462 -23.401667 -0.037566 2.340713 50.343402 1.993220 12.465482 -6.826579 0.097500 0.000001 -10.769300 7.844822 -2.356765 4.470804 22.973210 7.219026 -11.915283 4.482430 0.764514 6.318118 0.879301 5.941698 -1.688355 0.301100 0.000000 -1.064400
8.362972 17.420949 2.095447 -124.433308 -83.542079 135.059281 -10.782162 2.360325 1.229896 -0.773099 6.416542 -24.212453 -0.169196 2.262438 49.079614 2.002447 12.329612 -7.808234 -0.095100 -0.000000 -10.183900 7.859633 -2.342469 4.402128 22.924732 6.998117 -11.137065 4.495326 0.833070 5.747875 0.940756 6.253032 -1.336109 0.352600 0.000000 -1.708700
8.216365 17.442178 2.082129 -128.127660 -83.307124 138.887689 -10.728369 2.260883 1.381479 -0.894519 6.040432 -24.972441 -0.294514 2.174363 47.710736 2.025455 12.260751 -8.664789 -0.260300 0.000000 -9.705200 7.863358 -2.335850 4.327165 22.850834 6.730855 -10.393694 4.508651 0.896332 5.200651 1.010368 6.621501 -0.942484 0.416800 -0.000001 -2.419300
8.069908 17.462696 2.069533 -131.706842 -83.059728 142.607244 -10.689447 2.158506 1.548653 -1.001921 5.628726 -25.678374 -0.408837 2.075404 46.261320 2.052829 12.204726 -9.380211 -0.396100 0.000000 -9.337900 7.854181 -2.341655 4.244664 22.762430 6.408113 -9.685258 4.523969 0.954369 4.668145 1.086116 7.041875 -0.516504 0.494400 -0.000000 -3.092001
7.923602 17.482358 2.057950 -135.031063 -82.806561 146.076190 -10.665460 2.051572 1.732102 -1.083165 5.161555 -26.327586 -0.508677 1.966000 44.759004 2.074786 12.109976 -9.939274 -0.497800 -0.000000 -9.075800 7.833472 -2.362482 4.154211 22.666980 6.027275 -9.010857 4.541752 1.006543 4.147321 1.166140 7.509139 -0.064263 0.586000 0.000000 -3.712400
7.777468 17.500923 2.047767 -137.984678 -82.549473 149.178814 -10.654994 1.938596 1.929862 -1.122797 4.628909 -26.923943 -0.591531 1.848075 43.236826 2.082168 11.931734 -10.330931 -0.560900 -0.000000 -8.938000 7.803203 -2.398575 4.056590 22.575249 5.597071 -8.369166 4.563029 1.052906 3.639484 1.248012 8.017165 0.393675 0.690699 0.000000 -4.150600
7.631420 17.518101 2.039274 -140.522716 -82.289745 151.872004 -10.655844 1.820360 2.139106 -1.111200 4.027594 -27.472936 -0.656773 1.724864 41.727464 2.068008 11.639115 -10.553097 -0.583500 -0.000000 -8.925900 7.766367 -2.448646 3.953673 22.492634 5.132586 -7.758049 4.587744 1.093104 3.150070 1.329888 8.560016 0.844307 0.807300 0.000000 -4.391500
